<svg xmlns="http://www.w3.org/2000/svg" xml:space="preserve" viewBox="0 0 512 512"><path fill="#8892bf" stroke="#4f5b93" stroke-linejoin="round" stroke-miterlimit="10" stroke-width="21" d="m270.696 165.173 52.726 54.194-235.81 260.714c-10.253 10.985-28.562 10.985-39.547 0l-28.562-29.294c-10.985-10.253-10.985-28.562 0-39.547l251.193-246.067zm224.053 46.742-38.31 37.813c-7.802 7.56-19.676 7.374-27.931-.439l-8.237-9.209c-6.197-5.685-8.825-16.203-5.257-21.036 6.35-4.091 4.453-16.693-7.242-28.052-16.484-17.72-38.12-18.759-46.638-9.813-3.535 2.738-14.894 14.433-14.894 14.433l-50.871-51.786 8.511-8.248s2.128-2.062 6.394-6.884c16.313-15.808-.161-34.226-.161-34.226-44.686-45.403-108.236-45.703-108.236-45.703l-.446-16.071c128.3-30.811 175.6 25.808 192.782 43.539l36.427 37.59c8.935 9.22-.549 34.914 12.488 49.786 6.186 6.383 14.521 9.308 20.806 9.407 7.081-6.175 18.221-3.904 23.708 2.468l7.549 8.5c7.557 7.802 7.371 19.673-.442 27.931z"/></svg>