<svg xmlns="http://www.w3.org/2000/svg" xml:space="preserve" viewBox="0 0 512 512"><path fill="#8892bf" stroke="#4f5b93" stroke-linejoin="round" stroke-miterlimit="10" stroke-width="20" d="m241.5 166.6 247.4 242.3c10.8 10.8 10.8 28.8 0 38.9l-28.1 28.8c-10.8 10.8-28.8 10.8-38.9 0L189.6 219.9l51.9-53.3zm-220.6 46c-7.7-8.1-7.9-19.8-.4-27.5l7.4-8.4c5.4-6.3 16.4-8.5 23.3-2.4 6.2-.1 14.4-3 20.5-9.3 12.8-14.6 3.5-39.9 12.3-49l35.9-37c16.9-17.5 63.5-73.2 189.8-42.9l-.4 15.8s-62.6.3-106.6 45c0 0-16.2 18.1-.2 33.7 4.2 4.7 6.3 6.8 6.3 6.8l8.4 8.1-50.1 51s-11.2-11.5-14.7-14.2c-8.4-8.8-29.7-7.8-45.9 9.7-11.5 11.2-13.4 23.6-7.1 27.6 3.5 4.8.9 15.1-5.2 20.7l-8.1 9.1c-8.1 7.7-19.8 7.9-27.5.4l-37.7-37.2z"/></svg>