<svg xmlns="http://www.w3.org/2000/svg" data-name="Layer 1" viewBox="0 0 754.62 713.82">
    <path fill="#4f5b93"
          d="M397.71 0c197.12 0 356.91 159.79 356.91 356.91 0 197.12-159.79 356.91-356.91 356.91C200.59 713.82 40.8 554 40.8 356.91 40.8 159.79 200.59 0 397.71 0Z" />
    <path fill="#39477a"
          d="M40.8 356.91C40.8 159.79 200.6 0 397.71 0h-40.8C159.79 0 0 159.79 0 356.91s159.79 356.91 356.91 356.91h40.8C200.6 713.82 40.8 554 40.8 356.91Z" />
    <path fill="#fff"
          d="m343.3 252.39 256.13 250.85c11.18 11.18 11.18 29.81 0 40.27l-29.09 29.81c-11.18 11.19-29.82 11.19-40.27 0l-240.5-265.75 53.73-55.18ZM114.92 300c-8-8.38-8.18-20.49-.41-28.47l7.66-8.69c5.59-6.52 17-8.8 24.12-2.49a31.63 31.63 0 0 0 21.22-9.62c13.26-15.12 3.63-41.31 12.74-50.73l37.16-38.31c17.5-18.12 65.74-75.78 196.5-44.41l-.42 16.36s-64.8.31-110.36 46.58c0 0-16.77 18.74-.2 34.89 4.35 4.87 6.52 7 6.52 7l8.7 8.39-51.87 52.8s-11.6-11.91-15.22-14.7c-8.7-9.12-30.75-8.08-47.52 10-11.9 11.59-13.87 24.43-7.35 28.57 3.62 5 .93 15.63-5.38 21.43l-8.39 9.4c-8.38 8-20.5 8.18-28.47.42l-39-38.52Z" />
</svg>
