<svg xmlns="http://www.w3.org/2000/svg" data-name="Layer 1" viewBox="0 0 1948.89 713.82">
    <rect width="1908.09" height="713.82" x="40.8" fill="#4f5b93" rx="356.91" />
    <path fill="#39477a"
          d="M40.8 356.91C40.8 159.79 200.6 0 397.71 0h-40.8C159.79 0 0 159.79 0 356.91 0 554 159.79 713.82 356.91 713.82h40.8C200.6 713.82 40.8 554 40.8 356.91Z" />
    <path fill="#fff"
          d="m408.62 264.39 256.12 250.85c11.18 11.18 11.18 29.81 0 40.27l-29.09 29.81c-11.18 11.19-29.81 11.19-40.27 0L354.89 319.57l53.73-55.18ZM180.24 312c-8-8.38-8.18-20.49-.42-28.47l7.66-8.69c5.59-6.52 17-8.8 24.13-2.49a31.66 31.66 0 0 0 21.22-9.62c13.25-15.12 3.62-41.31 12.73-50.73l37.17-38.31c17.5-18.12 65.74-75.78 196.49-44.41l-.41 16.36S414 146 368.45 192.23c0 0-16.77 18.74-.21 34.89 4.35 4.87 6.52 7 6.52 7l8.7 8.39-51.87 52.8s-11.59-11.91-15.21-14.7c-8.7-9.12-30.75-8.08-47.52 10-11.86 11.67-13.86 24.51-7.35 28.65 3.62 5 .93 15.63-5.39 21.43l-8.38 9.42c-8.39 8-20.5 8.18-28.47.42l-39-38.52Zm737.4-192.76q55.93 0 83.8 24.34t27.86 69.21a129.83 129.83 0 0 1-5.73 38.62 88 88 0 0 1-18.71 33q-13 14.47-34.41 22.93t-52.81 8.45h-22.33v97.57h-79.47V119.24Zm-1.81 64.17h-20.52V251H911a51.26 51.26 0 0 0 19.12-3.52A30.15 30.15 0 0 0 944.3 236q5.33-8 5.33-21.22 0-13.89-8.25-22.64t-25.55-8.73Zm412.43 229.95h-79.87v-119.9H1156v119.9h-79.87V119.24H1156v109h92.35v-109h79.87Zm165.37-294.12q55.92 0 83.79 24.34t27.87 69.21a129.84 129.84 0 0 1-5.74 38.62 87.88 87.88 0 0 1-18.71 33q-13 14.47-34.4 22.93t-52.81 8.45h-22.33v97.57h-79.47V119.24Zm-1.81 64.17h-20.52V251h15.7a51.17 51.17 0 0 0 19.11-3.52 30.18 30.18 0 0 0 14.18-11.48q5.32-8 5.33-21.22 0-13.89-8.25-22.64t-25.55-8.73ZM925.91 592.83H891v-52.35h-40.28v52.35h-34.88V464.41h34.88V512H891v-47.59h34.87Zm74.32-101.28q18.88 0 29.51 9.35t10.63 26.66v65.27h-23.81l-6.56-13.17h-.71a47.7 47.7 0 0 1-8.65 8.56 29.74 29.74 0 0 1-10.14 4.83 54.31 54.31 0 0 1-14 1.54 33.42 33.42 0 0 1-15.46-3.51 25.63 25.63 0 0 1-10.81-10.63q-3.94-7.12-4-18 0-16 11.07-23.72t32.06-8.7l16.6-.52v-1.41q0-6.68-3.29-9.49a13.17 13.17 0 0 0-8.83-2.81 48.26 48.26 0 0 0-13.13 2.07 109.26 109.26 0 0 0-14.54 5.31l-9.93-22.66a78.12 78.12 0 0 1 19.51-6.68 119.59 119.59 0 0 1 24.48-2.29Zm6 56.83-7.91.35q-9.48.36-13.3 3.3a10 10 0 0 0-3.83 8.39c0 3.39.91 5.9 2.73 7.51a10.43 10.43 0 0 0 7.2 2.41 15.44 15.44 0 0 0 10.67-4 13.11 13.11 0 0 0 4.44-10.28Zm178.99-56.83q17 0 26 8.7t9 27.84v64.74h-34.35v-54.11q0-11.33-3-15.77t-9-4.43q-8.34 0-11.55 7.29t-3.21 20.64v46.38h-34.41v-54.11a43.82 43.82 0 0 0-1.27-11.64 12.59 12.59 0 0 0-3.83-6.5 9.88 9.88 0 0 0-6.41-2.06q-5.88 0-9.18 3.55t-4.61 10.41a90.47 90.47 0 0 0-1.32 16.78v43.57h-34.34v-99.52h25.91l5 12.29h1a28.93 28.93 0 0 1 6.81-7.2 32.84 32.84 0 0 1 9.93-5 42.93 42.93 0 0 1 13.13-1.84q11 0 18.09 3.69a31.44 31.44 0 0 1 11.6 10.19h1a31.65 31.65 0 0 1 12.21-10.28 38.15 38.15 0 0 1 16.8-3.61Zm179.9 0q17 0 26.05 8.7t9 27.84v64.74h-34.34v-54.11q0-11.33-3-15.77t-9-4.43q-8.34 0-11.55 7.29t-3.28 20.64v46.38h-34.4v-54.11a43.82 43.82 0 0 0-1.27-11.64 12.65 12.65 0 0 0-3.82-6.5 9.91 9.91 0 0 0-6.42-2.06q-5.88 0-9.18 3.55t-4.61 10.41a90.47 90.47 0 0 0-1.32 16.78v43.57h-34.34v-99.52h25.91l5 12.29h1a28.93 28.93 0 0 1 6.81-7.2 32.84 32.84 0 0 1 9.93-5 42.93 42.93 0 0 1 13.13-1.84q11 0 18.1 3.69a31.41 31.41 0 0 1 11.59 10.19h1.06a31.5 31.5 0 0 1 12.21-10.28 38.1 38.1 0 0 1 16.74-3.61Zm103.22 0q14.49 0 25 5.05a36.25 36.25 0 0 1 16.26 15.15q5.7 10.11 5.7 25.3v15.29h-61.4a18.21 18.21 0 0 0 5.84 12.82q5.42 5 16 5a74 74 0 0 0 17.08-1.85 82.79 82.79 0 0 0 16-5.71v24.7a59.4 59.4 0 0 1-15.72 5.53 109.39 109.39 0 0 1-21.52 1.76 64.66 64.66 0 0 1-26.88-5.36 41.16 41.16 0 0 1-18.67-16.6q-6.81-11.25-6.8-28.9 0-17.93 6.14-29.47a39.25 39.25 0 0 1 17.22-17.13q11.08-5.58 25.75-5.58Zm1.23 23.37a14.29 14.29 0 0 0-10.15 3.82q-4.08 3.81-4.78 12h29.51a19.7 19.7 0 0 0-1.76-8 13.43 13.43 0 0 0-4.87-5.71 14.22 14.22 0 0 0-7.95-2.11Zm125.26-23.37a46.82 46.82 0 0 1 5.89.39c2 .27 3.57.49 4.57.66l-3.08 32.4a31.65 31.65 0 0 0-4.3-.75 69 69 0 0 0-7.38-.31 42.32 42.32 0 0 0-6.94.62 19.8 19.8 0 0 0-7 2.59 14.87 14.87 0 0 0-5.4 6q-2.1 4-2.11 10.76v48.93h-34.34v-99.53h25.56l5.36 15.9h1.67a36.24 36.24 0 0 1 7-8.92 34.38 34.38 0 0 1 9.58-6.37 26.54 26.54 0 0 1 10.92-2.37Z" />
</svg>
